<svg xmlns="http://www.w3.org/2000/svg" role="img" viewBox="0 0 24 24" width="24" height="24" fill="#9a3334">
  <title>GitHub</title>
  <path d="M12 0C5.372 0 0 5.373 0 12a12 12 0 008.208 11.385c.6.112.82-.26.82-.577v-2.043c-3.338.726-4.033-1.608-4.033-1.608-.546-1.385-1.333-1.754-1.333-1.754-1.089-.745.083-.73.083-.73 1.205.085 1.84 1.237 1.84 1.237 1.07 1.834 2.809 1.304 3.495.997.108-.775.418-1.305.762-1.605-2.665-.304-5.467-1.333-5.467-5.932 0-1.31.469-2.38 1.236-3.22-.123-.303-.535-1.523.117-3.176 0 0 1.008-.322 3.3 1.23a11.51 11.51 0 016 0c2.29-1.552 3.296-1.23 3.296-1.23.653 1.653.241 2.873.119 3.176.77.84 1.235 1.91 1.235 3.22 0 4.61-2.806 5.625-5.478 5.922.43.372.823 1.102.823 2.222v3.293c0 .32.218.694.825.576A12.004 12.004 0 0024 12c0-6.627-5.373-12-12-12z"></path>
</svg>
